<svg width="392" height="388" viewBox="0 0 392 388" fill="none" xmlns="http://www.w3.org/2000/svg">
<path fill-rule="evenodd" clip-rule="evenodd" d="M180.203 33.0666C161.686 47.3073 141.094 53.3391 124.89 57.0388L127.561 68.7366C133.88 67.294 141.04 65.4689 148.615 62.9029C148.851 91.823 148.6 117.158 147.796 139.605H123.139V151.604H147.301C143.904 223.75 134.082 264.573 115.245 300.746L125.887 306.288C145.86 267.935 155.904 225.005 159.318 151.604H189.007V139.605H159.808C160.65 115.823 160.872 88.9806 160.573 58.3066C169.513 54.4266 178.702 49.3577 187.518 42.5778L180.203 33.0666ZM269.108 39.0755V145.672C269.108 155.813 257.078 178.67 246.284 194.7C235.489 210.73 222.327 225.69 209.305 235.601L202.038 226.053C213.717 217.164 226.027 203.3 236.331 187.998C245.825 173.899 257.109 151.151 257.109 146.169V39.0755H269.108ZM88.9988 161.758V281.097H77V161.758H88.9988ZM97.0708 183.47H122.964V195.468H97.0708V183.47ZM290.205 306.544V206.282H278.207V306.544H290.205Z" fill="#1A1B1C"/>
</svg>
