<svg width="392" height="388" viewBox="0 0 392 388" fill="none" xmlns="http://www.w3.org/2000/svg">
<path fill-rule="evenodd" clip-rule="evenodd" d="M309.952 33.0762H215.618V144.946H309.952V33.0762ZM227.616 85.7137V44.2825H297.953V85.7137H227.616ZM227.616 97.7125V133.74H297.953V97.7125H227.616ZM120.581 35.5825H78.7353V125.285H96.747V267.744L71.1997 277.889L75.6279 289.04L122.971 270.241L118.542 259.089L108.746 262.979V125.285H120.581V35.5825ZM90.7341 113.286V47.5814H108.582V113.286H90.7341ZM193.681 301.343C170.405 247.119 160.204 193.12 160.204 116.018H148.205C148.205 194.323 158.589 250.011 182.655 306.076L193.681 301.343ZM223.778 305.947C243.555 280.527 250.258 239.999 250.258 207.014H238.259C238.259 239.2 231.582 276.376 214.308 298.58L223.778 305.947ZM262.253 166.232C267.396 177.178 274.229 188.517 281.793 198.944C292.235 213.339 304.4 226.451 315.963 234.498L322.817 224.649C312.767 217.656 301.518 205.703 291.505 191.899C281.78 178.492 272.152 164.344 268.784 145.679C268.781 150.419 266.153 157.935 262.253 166.232Z" fill="url(#paint0_angular_311_29)"/>
<path fill-rule="evenodd" clip-rule="evenodd" d="M309.952 33.0762H215.618V144.946H309.952V33.0762ZM227.616 85.7137V44.2825H297.953V85.7137H227.616ZM227.616 97.7125V133.74H297.953V97.7125H227.616ZM120.581 35.5825H78.7353V125.285H96.747V267.744L71.1997 277.889L75.6279 289.04L122.971 270.241L118.542 259.089L108.746 262.979V125.285H120.581V35.5825ZM90.7341 113.286V47.5814H108.582V113.286H90.7341ZM193.681 301.343C170.405 247.119 160.204 193.12 160.204 116.018H148.205C148.205 194.323 158.589 250.011 182.655 306.076L193.681 301.343ZM223.778 305.947C243.555 280.527 250.258 239.999 250.258 207.014H238.259C238.259 239.2 231.582 276.376 214.308 298.58L223.778 305.947ZM262.253 166.232C267.396 177.178 274.229 188.517 281.793 198.944C292.235 213.339 304.4 226.451 315.963 234.498L322.817 224.649C312.767 217.656 301.518 205.703 291.505 191.899C281.78 178.492 272.152 164.344 268.784 145.679C268.781 150.419 266.153 157.935 262.253 166.232Z" fill="#1A1B1C"/>
<defs>
<radialGradient id="paint0_angular_311_29" cx="0" cy="0" r="1" gradientUnits="userSpaceOnUse" gradientTransform="translate(262.785 89.011) rotate(90) scale(55.9349 47.167)">
<stop offset="0.05" stop-color="#F0D3EC"/>
<stop offset="0.25" stop-color="#87AED9"/>
<stop offset="0.45" stop-color="#87D5FF"/>
<stop offset="0.65" stop-color="#76E7E1"/>
<stop offset="0.85" stop-color="#B0DDA7"/>
<stop offset="0.948" stop-color="#FFDD94"/>
</radialGradient>
</defs>
</svg>
