<svg width="392" height="389" viewBox="0 0 392 389" fill="none" xmlns="http://www.w3.org/2000/svg">
<path d="M92.9865 360.959V362.555H76.6905V360.959H92.9865ZM94.4705 357.795V365.691H75.2905V357.795H94.4705ZM77.5305 364.011H92.2585V359.475H77.5305V364.011ZM97.1865 367.427V369.247H72.5745V367.427H97.1865ZM85.6505 364.935C85.7999 365.383 85.9679 365.887 86.1545 366.447C86.3412 366.988 86.5185 367.501 86.6865 367.987L84.2785 368.435C84.1479 367.968 83.9799 367.445 83.7745 366.867C83.5879 366.269 83.4105 365.803 83.2425 365.467L85.6505 364.935ZM93.8265 370.759V376.219H75.9345V370.759H93.8265ZM78.2025 374.483H91.5585V372.439H78.2025V374.483ZM82.0665 379.691C82.6265 379.691 83.0372 379.644 83.2985 379.551C83.5785 379.457 83.7652 379.299 83.8585 379.075C83.9705 378.832 84.0265 378.487 84.0265 378.039V375.379H86.4905V378.907C86.4905 379.672 86.3785 380.26 86.1545 380.671C85.9492 381.1 85.5852 381.399 85.0625 381.567C84.5399 381.753 83.8025 381.847 82.8505 381.847H80.0785L79.5465 379.691H82.0665ZM89.4865 376.555C90.9239 377.096 93.3972 378.207 96.9065 379.887L95.8425 381.791C95.5625 381.623 95.2639 381.455 94.9465 381.287C94.6479 381.137 94.3305 380.969 93.9945 380.783C93.0425 380.335 92.0905 379.896 91.1385 379.467C90.1865 379.037 89.3092 378.645 88.5065 378.291L89.4865 376.555ZM72.6025 379.831C73.8532 379.383 75.1692 378.841 76.5505 378.207C77.9319 377.553 79.0519 376.947 79.9105 376.387L81.0025 378.123C80.1812 378.683 79.0519 379.308 77.6145 379.999C76.1959 380.689 74.8239 381.287 73.4985 381.791L72.6025 379.831ZM122.499 372.355L119.503 381.987L117.291 381.287L120.287 371.739L121.435 372.019L122.499 372.355ZM123.675 369.835H141.119V372.019H123.675V369.835ZM131.039 366.559H133.335V382.295H131.039V366.559ZM117.963 363.871C119.606 365.14 121.277 366.503 122.975 367.959L121.547 369.891C120.875 369.256 120.035 368.519 119.027 367.679C118.019 366.82 117.207 366.148 116.591 365.663L117.963 363.871ZM118.887 357.431C120.941 358.98 122.527 360.24 123.647 361.211L122.191 363.171C121.482 362.536 120.67 361.827 119.755 361.043C118.841 360.259 118.094 359.643 117.515 359.195L118.887 357.431ZM122.191 378.683C124.413 377.451 126.195 376.2 127.539 374.931C128.883 373.661 130.106 372.112 131.207 370.283L132.579 371.571C131.422 373.531 130.134 375.229 128.715 376.667C127.315 378.104 125.589 379.439 123.535 380.671L122.191 378.683ZM133.223 370.143C134.25 371.916 135.435 373.475 136.779 374.819C138.123 376.163 139.803 377.376 141.819 378.459L140.503 380.615C138.655 379.495 137.05 378.207 135.687 376.751C134.343 375.276 133.149 373.615 132.103 371.767L133.223 370.143ZM123.787 366.839C124.907 366.167 125.999 365.42 127.063 364.599C128.127 363.777 129.051 362.965 129.835 362.163L131.263 363.843C130.573 364.477 129.817 365.131 128.995 365.803C128.193 366.475 127.325 367.147 126.391 367.819L125.047 368.743L123.787 366.839ZM134.259 362.135C134.95 362.583 135.669 363.068 136.415 363.591C137.199 364.132 137.965 364.673 138.711 365.215C139.458 365.737 140.102 366.195 140.643 366.587L139.355 368.407C138.441 367.697 137.349 366.885 136.079 365.971C134.829 365.056 133.83 364.365 133.083 363.899L134.259 362.135ZM124.067 358.327H140.531V363.507H138.291V360.483H126.279V363.479H124.067V358.327ZM174.636 372.635V380.279H172.368V372.635H174.636ZM183.596 374.651V376.611H163.436V374.651H183.596ZM185.528 379.439V381.427H161.504V379.439H185.528ZM185.78 364.263V366.195H173.096V364.263H185.78ZM185.304 359.083V361.015H173.628V359.083H185.304ZM185.22 368.547V370.451H173.628V368.547H185.22ZM180.432 365.243V373.251H178.22V365.243H180.432ZM177.352 360.427C177.502 361.173 177.576 361.575 177.576 361.631C177.856 363.031 178.052 364.085 178.164 364.795L176.204 364.991C176.148 364.412 176.027 363.675 175.84 362.779C175.784 362.349 175.71 361.957 175.616 361.603C175.542 361.229 175.467 360.903 175.392 360.623L177.352 360.427ZM180.46 364.935C180.946 363.068 181.291 361.491 181.496 360.203L183.428 360.343C183.428 360.399 183.214 361.388 182.784 363.311C182.635 363.908 182.486 364.515 182.336 365.131L180.46 364.935ZM179.872 356.311C180.04 356.833 180.236 357.487 180.46 358.271C180.703 359.036 180.899 359.689 181.048 360.231L178.836 360.539C178.706 360.035 178.519 359.372 178.276 358.551C178.034 357.729 177.828 357.104 177.66 356.675L179.872 356.311ZM172.34 366.167V372.103H164.276V366.167H172.34ZM166.208 370.367H170.408V367.875H166.208V370.367ZM161.056 370.199C161.523 369.396 161.896 368.631 162.176 367.903C162.475 367.156 162.699 366.325 162.848 365.411C162.998 364.477 163.072 363.404 163.072 362.191V357.851H172.284V364.039H164.304L164.276 362.219H170.184V359.671H165.172V362.499C165.172 364.44 164.948 366.185 164.5 367.735C164.071 369.265 163.408 370.721 162.512 372.103L161.056 370.199ZM205.549 365.215C206.109 364.561 206.688 363.777 207.285 362.863C207.901 361.929 208.489 360.968 209.049 359.979C209.609 358.971 210.141 357.935 210.645 356.871L212.717 357.795C212.008 359.157 211.242 360.52 210.421 361.883C209.6 363.245 208.881 364.3 208.265 365.047L212.493 364.655L212.017 366.755L206.025 367.343L205.549 365.215ZM205.913 372.075C207.182 370.675 208.48 369.004 209.805 367.063C211.149 365.103 212.297 363.236 213.249 361.463L215.153 362.583C214.425 363.945 213.464 365.532 212.269 367.343C211.074 369.153 210.029 370.628 209.133 371.767L214.201 370.983L214.229 373.223L206.473 374.455L205.913 372.075ZM205.325 378.095L214.313 376.359L214.509 378.767L205.633 380.503L205.325 378.095ZM215.125 380.027C215.424 379.784 215.61 379.597 215.685 379.467C215.76 379.317 215.797 379.093 215.797 378.795V359.335C217.664 359.167 219.614 358.933 221.649 358.635C223.684 358.336 225.69 358 227.669 357.627C227.874 357.589 228.07 357.552 228.257 357.515C228.444 357.477 228.64 357.44 228.845 357.403L229.237 359.699C227.632 360.053 225.746 360.399 223.581 360.735C221.434 361.071 219.596 361.323 218.065 361.491V378.655L222.125 376.443L222.601 378.767L216.161 382.183L215.125 380.027ZM217.057 367.483H230.049V369.779H217.057V367.483ZM224.589 359.867C224.645 364.179 224.785 367.828 225.009 370.815C225.233 373.801 225.625 376.172 226.185 377.927C226.334 378.468 226.502 378.86 226.689 379.103C226.894 379.345 227.1 379.467 227.305 379.467C227.51 379.467 227.669 379.355 227.781 379.131C227.893 378.907 228.024 378.496 228.173 377.899C228.192 377.787 228.21 377.647 228.229 377.479C228.266 377.311 228.304 377.124 228.341 376.919C228.397 376.377 228.49 375.827 228.621 375.267L230.441 375.995C230.348 376.461 230.236 377.003 230.105 377.619C229.993 378.235 229.872 378.804 229.741 379.327C229.517 380.148 229.218 380.773 228.845 381.203C228.49 381.651 227.977 381.875 227.305 381.875C226.465 381.875 225.774 381.585 225.233 381.007C224.692 380.428 224.253 379.513 223.917 378.263C223.432 376.508 223.068 374.128 222.825 371.123C222.582 368.099 222.433 364.347 222.377 359.867H224.589ZM249.762 368.435H274.402V370.451H249.762V368.435ZM250.714 359.363H273.478V361.379H250.714V359.363ZM251.862 363.899H272.358V365.943H251.862V363.899ZM260.906 356.675H263.286V369.107H260.906V356.675ZM265.162 374.735C266.226 374.156 267.309 373.531 268.41 372.859C269.511 372.168 270.463 371.552 271.266 371.011L272.582 372.915C270.118 374.427 268.055 375.631 266.394 376.527L265.162 374.735ZM262.894 369.191C263.659 371.095 264.499 372.635 265.414 373.811C266.329 374.968 267.486 375.939 268.886 376.723C270.305 377.488 272.171 378.188 274.486 378.823L273.394 381.091C271.042 380.325 269.11 379.485 267.598 378.571C266.086 377.656 264.826 376.573 263.818 375.323C262.829 374.053 261.914 372.476 261.074 370.591L262.894 369.191ZM249.482 376.723C251.983 375.696 254.177 374.529 256.062 373.223C257.947 371.916 259.767 370.357 261.522 368.547L263.034 369.947C261.13 371.981 259.226 373.699 257.322 375.099C255.418 376.48 253.141 377.768 250.49 378.963L249.482 376.723ZM255.306 380.643C255.642 380.456 255.894 380.232 256.062 379.971C256.249 379.691 256.342 379.429 256.342 379.187V373.503H258.61V379.327L264.434 377.395L264.77 379.607L256.146 382.435L255.306 380.643ZM318.699 379.215V381.287H294.115V379.215H318.699ZM304.727 373.895V380.223H302.543V373.895H304.727ZM310.271 373.895V380.223H308.087V373.895H310.271ZM305.231 360.763C305.548 361.005 306.36 361.565 307.667 362.443C308.395 362.909 308.834 363.199 308.983 363.311L307.863 364.907C307.826 364.888 307.2 364.449 305.987 363.591C304.848 362.788 304.214 362.34 304.083 362.247L305.231 360.763ZM304.643 366.951C304.718 367.007 304.82 367.072 304.951 367.147C305.082 367.221 305.222 367.315 305.371 367.427C305.95 367.781 306.575 368.183 307.247 368.631C307.938 369.06 308.376 369.34 308.563 369.471L307.443 371.151C307.2 370.964 306.836 370.712 306.351 370.395C305.866 370.077 305.362 369.741 304.839 369.387L303.523 368.519L304.643 366.951ZM318.699 364.823V366.783H294.227V364.823H318.699ZM303.719 359.755C304.335 358.187 304.746 357.076 304.951 356.423L307.387 356.787C307.051 357.776 306.64 358.831 306.155 359.951L303.719 359.755ZM294.563 371.599C295.795 370.665 296.682 369.863 297.223 369.191C297.783 368.519 298.147 367.809 298.315 367.063C298.483 366.316 298.567 365.28 298.567 363.955V358.719H315.171V368.771C315.171 369.517 315.078 370.105 314.891 370.535C314.723 370.945 314.415 371.253 313.967 371.459C313.538 371.664 312.931 371.767 312.147 371.767H309.347L308.899 369.807H310.943C311.428 369.807 311.802 369.779 312.063 369.723C312.324 369.648 312.511 369.517 312.623 369.331C312.754 369.125 312.819 368.836 312.819 368.463V360.763H300.919V364.795C300.919 366.064 300.779 367.137 300.499 368.015C300.219 368.892 299.79 369.704 299.211 370.451C298.632 371.179 297.792 372.009 296.691 372.943L296.131 373.419L294.563 371.599ZM316.095 372.803V380.083H313.771V374.875H299.015V380.139H296.691V372.803H316.095Z" fill="#1A1B1C" fill-opacity="0.5"/>
</svg>
