<svg width="33" viewBox="0 0 46 24" fill="none" xmlns="http://www.w3.org/2000/svg">
<g opacity="0.65">
<path fill-rule="evenodd" clip-rule="evenodd" d="M17.7359 2H8C5.23858 2 3 4.23858 3 7V17C3 19.7614 5.23858 22 8 22H16.9801C16.9409 21.8155 16.9199 21.6197 16.9199 21.4133V20H8C6.34315 20 5 18.6569 5 17V7C5 5.34315 6.34315 4 8 4H16.3358L17.7359 2ZM18.9199 20V21.4133C18.9199 21.7736 19.2141 21.9983 19.5151 22C19.5174 22 19.5198 22 19.5221 22C19.6994 21.999 19.8782 21.9205 19.9999 21.7467L21.2227 20H18.9199ZM21.08 4H18.7772L19.9999 2.25331C20.3302 1.78207 21.08 2.01147 21.08 2.58669V4ZM23.6641 20H32C33.6569 20 35 18.6569 35 17V7C35 5.34315 33.6569 4 32 4H23.08V2.58669C23.08 2.38023 23.059 2.18446 23.0198 2H32C34.7614 2 37 4.23858 37 7V17C37 19.7614 34.7614 22 32 22H22.264L23.6641 20ZM41 6.9917C41.6904 6.9917 42.25 7.55134 42.25 8.2417V15.7583C42.25 16.4487 41.6904 17.0083 41 17.0083C40.3096 17.0083 39.75 16.4487 39.75 15.7583V8.2417C39.75 7.55134 40.3096 6.9917 41 6.9917Z" fill="white"/>
<path fill-rule="evenodd" clip-rule="evenodd" d="M21.08 2.58668C21.08 2.01146 20.3303 1.78206 20 2.25329L12.106 13.5296C11.8327 13.9196 12.1204 14.4514 12.597 14.4514H18.92V21.4132C18.92 21.9885 19.6697 22.218 20 21.7467L27.894 10.4703C28.1673 10.0804 27.8796 9.54861 27.403 9.54861H21.08V2.58668Z" fill="#1F2B38"/>
<path fill-rule="evenodd" clip-rule="evenodd" d="M21.08 2.58668C21.08 2.01146 20.3303 1.78206 20 2.25329L12.106 13.5296C11.8327 13.9196 12.1204 14.4514 12.597 14.4514H18.92V21.4132C18.92 21.9885 19.6697 22.218 20 21.7467L27.894 10.4703C28.1673 10.0804 27.8796 9.54861 27.403 9.54861H21.08V2.58668Z" fill="white"/>
</g>
</svg>
