<svg width="28" height="28" viewBox="0 0 28 28" fill="none" xmlns="http://www.w3.org/2000/svg">
<rect width="28" height="28" fill="#F2FFEF"/>
<path fill-rule="evenodd" clip-rule="evenodd" d="M19.6383 7.34599C21.7871 9.49482 21.7871 12.9788 19.6383 15.1276L12.7197 22.0462C12.4268 22.3391 11.9519 22.3391 11.659 22.0462C11.3661 21.7533 11.3661 21.2784 11.659 20.9855L18.5776 14.0669C20.1407 12.5039 20.1407 9.9697 18.5776 8.40666C17.0146 6.84361 14.4804 6.84361 12.9174 8.40666L9.34012 11.9839H11.5684C11.9826 11.9839 12.3184 12.3197 12.3184 12.7339C12.3184 13.1481 11.9826 13.4839 11.5684 13.4839H7.50024C7.08603 13.4839 6.75024 13.1481 6.75024 12.7339V8.66574C6.75024 8.25153 7.08603 7.91574 7.50024 7.91574C7.91446 7.91574 8.25024 8.25153 8.25024 8.66574V10.9524L11.8567 7.346C14.0055 5.19717 17.4895 5.19717 19.6383 7.34599Z" fill="#7DB073"/>
</svg>
