<svg width="16.5" height="16.5" viewBox="0 0 22 22" fill="none" xmlns="http://www.w3.org/2000/svg">
<g opacity="0.75">
<path fill-rule="evenodd" clip-rule="evenodd" d="M9.00986 2.55738C8.19006 1.62833 6.7897 1.49348 5.81003 2.25197L2.13566 5.09937C1.10723 5.89559 0.917769 7.37683 1.71749 8.40252L10.3725 19.4961C10.8176 20.0671 11.4997 20.403 12.2238 20.403H19.3751C19.628 20.403 19.8754 20.3111 20.0658 20.1445C20.9387 19.3807 21.0197 18.0513 20.2491 17.1844L19.8074 16.6863C19.7838 16.6597 19.755 16.6338 19.7275 16.6111L16.4149 13.8812C16.0026 13.5417 15.7162 13.0696 15.6068 12.5468L13.9388 4.58251C13.8042 3.93966 13.0691 3.62848 12.5151 3.98108L11.4483 4.7706C11.3025 4.89675 11.0968 4.88712 10.9741 4.72364L9.00986 2.55738Z" fill="white"/>
</g>
</svg>
